<svg width="80" height="32" viewBox="0 0 80 32" fill="none" xmlns="http://www.w3.org/2000/svg">
<path d="M2.73084 20V12.3H4.90884V20H2.73084ZM7.55838 20V12.3H9.35138L13.5974 17.426H12.7504V12.3H14.8844V20H13.0914L8.84538 14.874H9.69238V20H7.55838ZM20.2267 20.154C19.596 20.154 18.9873 20.077 18.4007 19.923C17.8213 19.7617 17.3483 19.5563 16.9817 19.307L17.6967 17.701C18.0413 17.921 18.4373 18.1043 18.8847 18.251C19.3393 18.3903 19.7903 18.46 20.2377 18.46C20.5383 18.46 20.7803 18.4343 20.9637 18.383C21.147 18.3243 21.279 18.251 21.3597 18.163C21.4477 18.0677 21.4917 17.9577 21.4917 17.833C21.4917 17.657 21.411 17.5177 21.2497 17.415C21.0883 17.3123 20.8793 17.228 20.6227 17.162C20.366 17.096 20.08 17.03 19.7647 16.964C19.4567 16.898 19.145 16.8137 18.8297 16.711C18.5217 16.6083 18.2393 16.4763 17.9827 16.315C17.726 16.1463 17.517 15.93 17.3557 15.666C17.1943 15.3947 17.1137 15.0537 17.1137 14.643C17.1137 14.181 17.2383 13.763 17.4877 13.389C17.7443 13.015 18.1257 12.7143 18.6317 12.487C19.1377 12.2597 19.7683 12.146 20.5237 12.146C21.0297 12.146 21.5247 12.2047 22.0087 12.322C22.5 12.432 22.9363 12.597 23.3177 12.817L22.6467 14.434C22.28 14.236 21.917 14.0893 21.5577 13.994C21.1983 13.8913 20.85 13.84 20.5127 13.84C20.212 13.84 19.97 13.873 19.7867 13.939C19.6033 13.9977 19.4713 14.0783 19.3907 14.181C19.31 14.2837 19.2697 14.401 19.2697 14.533C19.2697 14.7017 19.3467 14.8373 19.5007 14.94C19.662 15.0353 19.871 15.116 20.1277 15.182C20.3917 15.2407 20.6777 15.303 20.9857 15.369C21.301 15.435 21.6127 15.5193 21.9207 15.622C22.236 15.7173 22.522 15.8493 22.7787 16.018C23.0353 16.1793 23.2407 16.3957 23.3947 16.667C23.556 16.931 23.6367 17.2647 23.6367 17.668C23.6367 18.1153 23.5083 18.5297 23.2517 18.911C23.0023 19.285 22.6247 19.5857 22.1187 19.813C21.62 20.0403 20.9893 20.154 20.2267 20.154ZM27.2743 20V14.027H24.9093V12.3H31.8063V14.027H29.4523V20H27.2743ZM32.407 20L35.806 12.3H37.951L41.361 20H39.095L36.433 13.367H37.291L34.629 20H32.407ZM34.266 18.504L34.827 16.898H38.589L39.15 18.504H34.266ZM43.0785 20V12.3H46.5985C47.3025 12.3 47.9075 12.4137 48.4135 12.641C48.9268 12.8683 49.3228 13.1983 49.6015 13.631C49.8802 14.0563 50.0195 14.5623 50.0195 15.149C50.0195 15.7283 49.8802 16.2307 49.6015 16.656C49.3228 17.0813 48.9268 17.4113 48.4135 17.646C47.9075 17.8733 47.3025 17.987 46.5985 17.987H44.2885L45.2565 17.041V20H43.0785ZM45.2565 17.272L44.2885 16.271H46.4665C46.9212 16.271 47.2585 16.172 47.4785 15.974C47.7058 15.776 47.8195 15.501 47.8195 15.149C47.8195 14.7897 47.7058 14.511 47.4785 14.313C47.2585 14.115 46.9212 14.016 46.4665 14.016H44.2885L45.2565 13.015V17.272ZM56.1718 20.154C55.5558 20.154 54.9875 20.055 54.4668 19.857C53.9462 19.659 53.4915 19.3803 53.1028 19.021C52.7215 18.6543 52.4245 18.229 52.2118 17.745C51.9992 17.261 51.8928 16.7293 51.8928 16.15C51.8928 15.5707 51.9992 15.039 52.2118 14.555C52.4245 14.071 52.7215 13.6493 53.1028 13.29C53.4915 12.9233 53.9462 12.641 54.4668 12.443C54.9875 12.245 55.5558 12.146 56.1718 12.146C56.7952 12.146 57.3635 12.245 57.8768 12.443C58.3975 12.641 58.8485 12.9233 59.2298 13.29C59.6112 13.6493 59.9082 14.071 60.1208 14.555C60.3408 15.039 60.4508 15.5707 60.4508 16.15C60.4508 16.7293 60.3408 17.2647 60.1208 17.756C59.9082 18.24 59.6112 18.6617 59.2298 19.021C58.8485 19.3803 58.3975 19.659 57.8768 19.857C57.3635 20.055 56.7952 20.154 56.1718 20.154ZM56.1718 18.35C56.4652 18.35 56.7365 18.2987 56.9858 18.196C57.2425 18.0933 57.4625 17.9467 57.6458 17.756C57.8365 17.558 57.9832 17.3233 58.0858 17.052C58.1958 16.7807 58.2508 16.48 58.2508 16.15C58.2508 15.8127 58.1958 15.512 58.0858 15.248C57.9832 14.9767 57.8365 14.7457 57.6458 14.555C57.4625 14.357 57.2425 14.2067 56.9858 14.104C56.7365 14.0013 56.4652 13.95 56.1718 13.95C55.8785 13.95 55.6035 14.0013 55.3468 14.104C55.0975 14.2067 54.8775 14.357 54.6868 14.555C54.5035 14.7457 54.3568 14.9767 54.2468 15.248C54.1442 15.512 54.0928 15.8127 54.0928 16.15C54.0928 16.48 54.1442 16.7807 54.2468 17.052C54.3568 17.3233 54.5035 17.558 54.6868 17.756C54.8775 17.9467 55.0975 18.0933 55.3468 18.196C55.6035 18.2987 55.8785 18.35 56.1718 18.35ZM62.6916 20V12.3H66.2116C66.9156 12.3 67.5206 12.4137 68.0266 12.641C68.5399 12.8683 68.9359 13.1983 69.2146 13.631C69.4932 14.0563 69.6326 14.5623 69.6326 15.149C69.6326 15.7283 69.4932 16.2307 69.2146 16.656C68.9359 17.074 68.5399 17.3967 68.0266 17.624C67.5206 17.844 66.9156 17.954 66.2116 17.954H63.9016L64.8696 17.041V20H62.6916ZM67.4546 20L65.5406 17.195H67.8616L69.7866 20H67.4546ZM64.8696 17.272L63.9016 16.271H66.0796C66.5342 16.271 66.8716 16.172 67.0916 15.974C67.3189 15.776 67.4326 15.501 67.4326 15.149C67.4326 14.7897 67.3189 14.511 67.0916 14.313C66.8716 14.115 66.5342 14.016 66.0796 14.016H63.9016L64.8696 13.015V17.272ZM73.4657 20V14.027H71.1007V12.3H77.9977V14.027H75.6437V20H73.4657Z" fill="#E6E6E6"/>
</svg>
