<svg width="80" height="32" viewBox="0 0 80 32" fill="none" xmlns="http://www.w3.org/2000/svg">
<path fill-rule="evenodd" clip-rule="evenodd" d="M20 7H2V25H20V7ZM8.72555 18.79H7.94455C7.70988 18.79 7.54488 18.7423 7.44955 18.647C7.35422 18.5443 7.30655 18.3757 7.30655 18.141V14.786C7.30655 14.5513 7.35422 14.3863 7.44955 14.291C7.54488 14.1883 7.70988 14.137 7.94455 14.137H8.72555C8.96022 14.137 9.12522 14.1883 9.22055 14.291C9.32322 14.3863 9.37455 14.5513 9.37455 14.786V18.141C9.37455 18.3757 9.32322 18.5443 9.22055 18.647C9.12522 18.7423 8.96022 18.79 8.72555 18.79ZM7.72455 20H8.95655C9.53588 20 9.98322 19.846 10.2986 19.538C10.6139 19.23 10.7716 18.7863 10.7716 18.207V14.72C10.7716 14.1407 10.6139 13.697 10.2986 13.389C9.98322 13.081 9.53588 12.927 8.95655 12.927H7.72455C7.14522 12.927 6.69788 13.081 6.38255 13.389C6.06722 13.697 5.90955 14.1407 5.90955 14.72V18.207C5.90955 18.7863 6.06722 19.23 6.38255 19.538C6.69788 19.846 7.14522 20 7.72455 20ZM15.0589 18.834H13.8269C13.7462 18.834 13.7059 18.7937 13.7059 18.713V17.052C13.7059 16.9713 13.7462 16.931 13.8269 16.931H15.0369C15.2862 16.931 15.4659 16.9787 15.5759 17.074C15.6859 17.1693 15.7409 17.3307 15.7409 17.558V18.196C15.7409 18.4233 15.6859 18.5883 15.5759 18.691C15.4732 18.7863 15.3009 18.834 15.0589 18.834ZM14.9489 15.798H13.8269C13.7462 15.798 13.7059 15.7577 13.7059 15.677V14.214C13.7059 14.1333 13.7462 14.093 13.8269 14.093H14.9599C15.1946 14.093 15.3632 14.1443 15.4659 14.247C15.5759 14.3423 15.6309 14.5037 15.6309 14.731V15.16C15.6309 15.3873 15.5759 15.5523 15.4659 15.655C15.3559 15.7503 15.1836 15.798 14.9489 15.798ZM12.3089 13.158V19.769C12.3089 19.923 12.3859 20 12.5399 20H15.2899C15.8619 20 16.3056 19.846 16.6209 19.538C16.9362 19.23 17.0939 18.79 17.0939 18.218V17.558C17.0939 17.1987 17.0059 16.9237 16.8299 16.733C16.6539 16.535 16.4192 16.414 16.1259 16.37C16.7052 16.1867 16.9949 15.7833 16.9949 15.16V14.709C16.9949 14.137 16.8372 13.697 16.5219 13.389C16.2066 13.081 15.7592 12.927 15.1799 12.927H12.5399C12.3859 12.927 12.3089 13.004 12.3089 13.158Z" fill="#E6E6E6"/>
<path d="M24.6402 17.4H25.3502C25.5636 17.4 25.7136 17.3567 25.8002 17.27C25.8936 17.1767 25.9402 17.0233 25.9402 16.81V13.76C25.9402 13.5467 25.8936 13.3967 25.8002 13.31C25.7136 13.2167 25.5636 13.17 25.3502 13.17H24.6402C24.4269 13.17 24.2769 13.2167 24.1902 13.31C24.1036 13.3967 24.0602 13.5467 24.0602 13.76V16.81C24.0602 17.0233 24.1036 17.1767 24.1902 17.27C24.2769 17.3567 24.4269 17.4 24.6402 17.4ZM25.5602 18.5H24.4402C23.9136 18.5 23.5069 18.36 23.2202 18.08C22.9336 17.8 22.7902 17.3967 22.7902 16.87V13.7C22.7902 13.1733 22.9336 12.77 23.2202 12.49C23.5069 12.21 23.9136 12.07 24.4402 12.07H25.5602C26.0869 12.07 26.4936 12.21 26.7802 12.49C27.0669 12.77 27.2102 13.1733 27.2102 13.7V16.87C27.2102 17.3967 27.0669 17.8 26.7802 18.08C26.4936 18.36 26.0869 18.5 25.5602 18.5ZM32.0478 18.5H30.9578C30.4311 18.5 30.0245 18.36 29.7378 18.08C29.4511 17.8 29.3078 17.3967 29.3078 16.87V13.7C29.3078 13.1733 29.4511 12.77 29.7378 12.49C30.0245 12.21 30.4311 12.07 30.9578 12.07H32.0478C32.5678 12.07 32.9711 12.2133 33.2578 12.5C33.5511 12.78 33.6978 13.18 33.6978 13.7V14.17C33.6978 14.3167 33.6245 14.39 33.4778 14.39H32.6378C32.4978 14.39 32.4278 14.3167 32.4278 14.17V13.76C32.4278 13.5467 32.3811 13.3967 32.2878 13.31C32.2011 13.2167 32.0511 13.17 31.8378 13.17H31.1578C30.9511 13.17 30.8011 13.2167 30.7078 13.31C30.6211 13.3967 30.5778 13.5467 30.5778 13.76V16.81C30.5778 17.0233 30.6211 17.1767 30.7078 17.27C30.8011 17.3567 30.9511 17.4 31.1578 17.4H31.8378C32.0511 17.4 32.2011 17.3567 32.2878 17.27C32.3811 17.1767 32.4278 17.0233 32.4278 16.81V16.4C32.4278 16.2533 32.4978 16.18 32.6378 16.18H33.4778C33.6245 16.18 33.6978 16.2533 33.6978 16.4V16.87C33.6978 17.39 33.5511 17.7933 33.2578 18.08C32.9711 18.36 32.5678 18.5 32.0478 18.5ZM39.2687 18.5H35.9987C35.8587 18.5 35.7887 18.43 35.7887 18.29V12.28C35.7887 12.14 35.8587 12.07 35.9987 12.07H39.2687C39.402 12.07 39.4687 12.14 39.4687 12.28V12.96C39.4687 13.1 39.402 13.17 39.2687 13.17H37.1787C37.0987 13.17 37.0587 13.2067 37.0587 13.28V14.58C37.0587 14.6533 37.0987 14.69 37.1787 14.69H38.8887C39.0287 14.69 39.0987 14.76 39.0987 14.9V15.58C39.0987 15.72 39.0287 15.79 38.8887 15.79H37.1787C37.0987 15.79 37.0587 15.8267 37.0587 15.9V17.29C37.0587 17.3633 37.0987 17.4 37.1787 17.4H39.2687C39.402 17.4 39.4687 17.47 39.4687 17.61V18.29C39.4687 18.43 39.402 18.5 39.2687 18.5ZM42.2438 18.5H41.2838C41.1638 18.5 41.1238 18.43 41.1638 18.29L42.7438 12.28C42.7905 12.14 42.8905 12.07 43.0438 12.07H44.3738C44.5405 12.07 44.6405 12.14 44.6738 12.28L46.2538 18.29C46.2938 18.43 46.2538 18.5 46.1338 18.5H45.1738C45.1005 18.5 45.0505 18.4867 45.0238 18.46C44.9972 18.4267 44.9772 18.37 44.9638 18.29L44.6838 17.19H42.7338L42.4538 18.29C42.4405 18.37 42.4172 18.4267 42.3838 18.46C42.3572 18.4867 42.3105 18.5 42.2438 18.5ZM43.6938 13.28L42.9738 16.17H44.4538L43.7338 13.28H43.6938ZM49.1802 18.5H48.3502C48.2102 18.5 48.1402 18.43 48.1402 18.29V12.28C48.1402 12.14 48.2102 12.07 48.3502 12.07H49.1002C49.2402 12.07 49.3336 12.1167 49.3802 12.21L51.4002 16H51.4402V12.28C51.4402 12.14 51.5102 12.07 51.6502 12.07H52.4802C52.6202 12.07 52.6902 12.14 52.6902 12.28V18.29C52.6902 18.43 52.6202 18.5 52.4802 18.5H51.7502C51.6036 18.5 51.4969 18.4333 51.4302 18.3L49.4302 14.58H49.3902V18.29C49.3902 18.43 49.3202 18.5 49.1802 18.5ZM56.3698 17.44H57.4898C57.7098 17.44 57.8665 17.3967 57.9598 17.31C58.0598 17.2167 58.1098 17.0667 58.1098 16.86V16.28C58.1098 16.0733 58.0598 15.9267 57.9598 15.84C57.8598 15.7533 57.6965 15.71 57.4698 15.71H56.3698C56.2965 15.71 56.2598 15.7467 56.2598 15.82V17.33C56.2598 17.4033 56.2965 17.44 56.3698 17.44ZM56.3698 14.68H57.3898C57.6032 14.68 57.7598 14.6367 57.8598 14.55C57.9598 14.4567 58.0098 14.3067 58.0098 14.1V13.71C58.0098 13.5033 57.9598 13.3567 57.8598 13.27C57.7665 13.1767 57.6132 13.13 57.3998 13.13H56.3698C56.2965 13.13 56.2598 13.1667 56.2598 13.24V14.57C56.2598 14.6433 56.2965 14.68 56.3698 14.68ZM54.9898 18.29V12.28C54.9898 12.14 55.0598 12.07 55.1998 12.07H57.5998C58.1265 12.07 58.5332 12.21 58.8198 12.49C59.1065 12.77 59.2498 13.17 59.2498 13.69V14.1C59.2498 14.6667 58.9865 15.0333 58.4598 15.2C58.7265 15.24 58.9398 15.35 59.0998 15.53C59.2598 15.7033 59.3398 15.9533 59.3398 16.28V16.88C59.3398 17.4 59.1965 17.8 58.9098 18.08C58.6232 18.36 58.2198 18.5 57.6998 18.5H55.1998C55.0598 18.5 54.9898 18.43 54.9898 18.29ZM65.0367 18.5H61.7467C61.6067 18.5 61.5367 18.43 61.5367 18.29V12.28C61.5367 12.14 61.6067 12.07 61.7467 12.07H62.5967C62.7367 12.07 62.8067 12.14 62.8067 12.28V17.28C62.8067 17.3533 62.8467 17.39 62.9267 17.39H65.0367C65.1701 17.39 65.2367 17.4633 65.2367 17.61V18.29C65.2367 18.43 65.1701 18.5 65.0367 18.5ZM70.3189 12.07H71.1589C71.3056 12.07 71.3789 12.1367 71.3789 12.27V16.87C71.3789 17.39 71.2322 17.7933 70.9389 18.08C70.6522 18.36 70.2489 18.5 69.7289 18.5H68.6289C68.1022 18.5 67.6956 18.36 67.4089 18.08C67.1222 17.8 66.9789 17.3967 66.9789 16.87V12.28C66.9789 12.14 67.0489 12.07 67.1889 12.07H68.0389C68.1789 12.07 68.2489 12.14 68.2489 12.28V16.81C68.2489 17.0233 68.2922 17.1767 68.3789 17.27C68.4722 17.3567 68.6222 17.4 68.8289 17.4H69.5189C69.7322 17.4 69.8822 17.3567 69.9689 17.27C70.0622 17.1767 70.1089 17.0233 70.1089 16.81V12.28C70.1089 12.14 70.1789 12.07 70.3189 12.07ZM77.1046 18.5H73.8346C73.6946 18.5 73.6246 18.43 73.6246 18.29V12.28C73.6246 12.14 73.6946 12.07 73.8346 12.07H77.1046C77.2379 12.07 77.3046 12.14 77.3046 12.28V12.96C77.3046 13.1 77.2379 13.17 77.1046 13.17H75.0146C74.9346 13.17 74.8946 13.2067 74.8946 13.28V14.58C74.8946 14.6533 74.9346 14.69 75.0146 14.69H76.7246C76.8646 14.69 76.9346 14.76 76.9346 14.9V15.58C76.9346 15.72 76.8646 15.79 76.7246 15.79H75.0146C74.9346 15.79 74.8946 15.8267 74.8946 15.9V17.29C74.8946 17.3633 74.9346 17.4 75.0146 17.4H77.1046C77.2379 17.4 77.3046 17.47 77.3046 17.61V18.29C77.3046 18.43 77.2379 18.5 77.1046 18.5Z" fill="#E6E6E6"/>
</svg>
