<svg width="81" height="32" viewBox="0 0 81 32" fill="none" xmlns="http://www.w3.org/2000/svg">
<g style="mix-blend-mode:luminosity">
<path d="M12.9375 19.5156C12.9375 20.7549 12.5562 21.839 11.9868 22.5913C11.4179 23.3431 10.7058 23.7187 10 23.7187C9.29416 23.7187 8.58206 23.3431 8.01317 22.5913C7.44382 21.839 7.0625 20.7549 7.0625 19.5156C7.0625 18.2764 7.44382 17.1923 8.01317 16.4399C8.58206 15.6882 9.29416 15.3125 10 15.3125C10.7058 15.3125 11.4179 15.6882 11.9868 16.4399C12.5562 17.1923 12.9375 18.2764 12.9375 19.5156Z" stroke="#35EDDF" stroke-width="2"/>
<path d="M11.9688 14.3428C11.9688 14.3428 12.3389 10.8866 16.0038 11.2448C19.6686 11.6029 19.7506 18.2858 17.4448 19.9757C15.5539 21.3615 11.9688 20.5389 11.9688 20.5389" stroke="#1A55BE" stroke-width="2" stroke-linecap="round"/>
<path d="M8.03125 14.3428C8.03125 14.3428 7.6611 10.8866 3.99624 11.2448C0.331381 11.6029 0.249449 18.2858 2.55517 19.9757C4.44608 21.3615 8.03125 20.5389 8.03125 20.5389" stroke="#1A55BE" stroke-width="2" stroke-linecap="round"/>
<ellipse cx="15.3438" cy="8.6875" rx="1.40625" ry="1.40625" fill="#1A55BE"/>
<ellipse cx="4.9375" cy="8.6875" rx="1.40625" ry="1.40625" fill="#1A55BE"/>
<ellipse cx="10.1406" cy="12.7656" rx="1.26562" ry="1.26562" fill="#35EDDF"/>
<path d="M31.2159 16.3636C31.2159 17.1473 31.0691 17.8184 30.7756 18.3771C30.4844 18.9335 30.0866 19.3596 29.5824 19.6555C29.0805 19.9515 28.5111 20.0994 27.8743 20.0994C27.2375 20.0994 26.6669 19.9515 26.1626 19.6555C25.6607 19.3572 25.263 18.9299 24.9695 18.3736C24.6783 17.8149 24.5327 17.1449 24.5327 16.3636C24.5327 15.58 24.6783 14.91 24.9695 14.3537C25.263 13.795 25.6607 13.3677 26.1626 13.0717C26.6669 12.7758 27.2375 12.6278 27.8743 12.6278C28.5111 12.6278 29.0805 12.7758 29.5824 13.0717C30.0866 13.3677 30.4844 13.795 30.7756 14.3537C31.0691 14.91 31.2159 15.58 31.2159 16.3636ZM29.8913 16.3636C29.8913 15.812 29.8049 15.3468 29.6321 14.968C29.4616 14.5869 29.2249 14.2992 28.9219 14.1051C28.6188 13.9086 28.2696 13.8104 27.8743 13.8104C27.4789 13.8104 27.1297 13.9086 26.8267 14.1051C26.5237 14.2992 26.2857 14.5869 26.1129 14.968C25.9425 15.3468 25.8572 15.812 25.8572 16.3636C25.8572 16.9152 25.9425 17.3816 26.1129 17.7628C26.2857 18.1416 26.5237 18.4292 26.8267 18.6257C27.1297 18.8198 27.4789 18.9169 27.8743 18.9169C28.2696 18.9169 28.6188 18.8198 28.9219 18.6257C29.2249 18.4292 29.4616 18.1416 29.6321 17.7628C29.8049 17.3816 29.8913 16.9152 29.8913 16.3636Z" fill="#35EDDF"/>
<path d="M37.046 12.7273H38.3635V17.4787C38.3635 17.9995 38.2404 18.4576 37.9941 18.853C37.7503 19.2483 37.407 19.5573 36.9643 19.7798C36.5216 20 36.0043 20.1101 35.4125 20.1101C34.8182 20.1101 34.2998 20 33.8571 19.7798C33.4144 19.5573 33.0711 19.2483 32.8272 18.853C32.5834 18.4576 32.4615 17.9995 32.4615 17.4787V12.7273H33.7789V17.3686C33.7789 17.6716 33.8452 17.9415 33.9778 18.1783C34.1127 18.415 34.3021 18.6009 34.546 18.7358C34.7898 18.8684 35.0787 18.9347 35.4125 18.9347C35.7463 18.9347 36.0351 18.8684 36.2789 18.7358C36.5252 18.6009 36.7145 18.415 36.8471 18.1783C36.9797 17.9415 37.046 17.6716 37.046 17.3686V12.7273ZM39.4759 13.8317V12.7273H45.2784V13.8317H43.0305V20H41.7237V13.8317H39.4759ZM46.397 20V12.7273H49.1243C49.683 12.7273 50.1518 12.8243 50.5305 13.0185C50.9117 13.2126 51.1993 13.4848 51.3935 13.8352C51.59 14.1832 51.6882 14.5893 51.6882 15.0533C51.6882 15.5196 51.5888 15.9245 51.3899 16.2678C51.1934 16.6087 50.9034 16.8726 50.5199 17.0597C50.1364 17.2443 49.6652 17.3366 49.1065 17.3366H47.1641V16.2429H48.929C49.2557 16.2429 49.5232 16.1979 49.7315 16.108C49.9399 16.0156 50.0938 15.8819 50.1932 15.7067C50.295 15.5291 50.3459 15.3113 50.3459 15.0533C50.3459 14.7952 50.295 14.575 50.1932 14.3928C50.0914 14.2081 49.9363 14.0684 49.728 13.9737C49.5196 13.8767 49.2509 13.8281 48.9219 13.8281H47.7145V20H46.397ZM50.1541 16.7045L51.9545 20H50.4844L48.7159 16.7045H50.1541ZM52.9009 20V12.7273H57.631V13.8317H54.2184V15.8061H57.386V16.9105H54.2184V18.8956H57.6594V20H52.9009ZM59.9091 20H58.5028L61.0632 12.7273H62.6896L65.2536 20H63.8473L61.9048 14.2188H61.848L59.9091 20ZM59.9553 17.1484H63.7905V18.2067H59.9553V17.1484ZM72.0948 15.1811H70.7667C70.7288 14.9633 70.659 14.7704 70.5572 14.6023C70.4554 14.4318 70.3287 14.2874 70.1772 14.169C70.0257 14.0507 69.8529 13.9619 69.6587 13.9027C69.467 13.8411 69.2598 13.8104 69.0373 13.8104C68.6419 13.8104 68.2915 13.9098 67.9862 14.1087C67.6808 14.3052 67.4416 14.594 67.2688 14.9751C67.096 15.3539 67.0096 15.8168 67.0096 16.3636C67.0096 16.92 67.096 17.3887 67.2688 17.7699C67.444 18.1487 67.6831 18.4351 67.9862 18.6293C68.2915 18.821 68.6407 18.9169 69.0337 18.9169C69.2515 18.9169 69.4551 18.8885 69.6445 18.8317C69.8363 18.7725 70.0079 18.6861 70.1594 18.5724C70.3133 18.4588 70.4424 18.3191 70.5465 18.1534C70.6531 17.9877 70.7264 17.7983 70.7667 17.5852L72.0948 17.5923C72.0451 17.938 71.9374 18.2623 71.7717 18.5653C71.6083 18.8684 71.3941 19.1359 71.1289 19.3679C70.8638 19.5975 70.5536 19.7775 70.1985 19.9077C69.8434 20.0355 69.4492 20.0994 69.016 20.0994C68.3768 20.0994 67.8062 19.9515 67.3043 19.6555C66.8024 19.3596 66.4071 18.9323 66.1183 18.3736C65.8294 17.8149 65.685 17.1449 65.685 16.3636C65.685 15.58 65.8306 14.91 66.1218 14.3537C66.413 13.795 66.8095 13.3677 67.3114 13.0717C67.8133 12.7758 68.3815 12.6278 69.016 12.6278C69.4208 12.6278 69.7972 12.6847 70.1452 12.7983C70.4933 12.9119 70.8034 13.0788 71.0756 13.299C71.3479 13.5168 71.5716 13.7843 71.7468 14.1016C71.9244 14.4164 72.0404 14.7763 72.0948 15.1811ZM73.3013 20V12.7273H74.6188V15.8061H77.9888V12.7273H79.3098V20H77.9888V16.9105H74.6188V20H73.3013Z" fill="#1A55BE"/>
</g>
</svg>
