<svg width="38" height="38" viewBox="0 0 38 38" fill="none" xmlns="http://www.w3.org/2000/svg">
<mask id="mask0_256_3596" style="mask-type:alpha" maskUnits="userSpaceOnUse" x="0" y="0" width="38" height="38">
<rect width="37.81" height="37.8649" rx="7" fill="#D9D9D9"/>
</mask>
<g mask="url(#mask0_256_3596)">
<path d="M17.3362 28.2024C17.3362 30.0547 15.8346 31.5563 13.9823 31.5563H10.2468C7.85744 31.5563 5.81596 30.728 4.12239 29.0714C2.42882 27.4148 1.58203 25.3901 1.58203 22.9972C1.58203 20.9462 2.19907 19.1187 3.43315 17.5147C3.77511 17.0702 4.14631 16.6702 4.54674 16.3145C6.48835 14.5902 8.53738 12.7311 10.106 10.6617C10.6967 9.88248 11.4 9.18234 12.2161 8.56122C14.1854 7.0624 16.4172 6.31299 18.9116 6.31299C21.9837 6.31299 24.5897 7.38451 26.7296 9.52756C27.5876 10.3868 28.2736 11.3211 28.7876 12.3305C30.1342 14.9747 32.4861 17.4786 34.4492 19.7038C35.6438 21.058 36.2412 22.6422 36.2412 24.4566C36.2412 26.4287 35.5519 28.105 34.1735 29.4855C32.795 30.866 31.1211 31.5563 29.1518 31.5563H23.8409C21.9886 31.5563 20.487 30.0547 20.487 28.2024V22.754C20.487 21.8275 21.6008 21.3562 22.2658 22.0014C22.6773 22.4006 23.333 22.3954 23.738 21.9897L24.1033 21.6239C24.7166 21.0097 24.7166 20.0149 24.1033 19.4008L22.067 17.3615C20.3251 15.617 17.4981 15.617 15.7562 17.3615L13.7199 19.4008C13.1066 20.0149 13.1066 21.0097 13.7199 21.6239L14.0852 21.9897C14.4902 22.3954 15.146 22.4006 15.5574 22.0014C16.2224 21.3562 17.3362 21.8274 17.3362 22.754V28.2024Z" fill="#1B56BE"/>
</g>
</svg>
