<svg width="100" height="100" viewBox="0 0 100 100" fill="none" xmlns="http://www.w3.org/2000/svg">
<circle cx="50" cy="50" r="50" fill="#A490FC"/>
<g filter="url(#filter0_i_14_50)">
<path d="M41.6576 30C38.0056 30 34.8772 31.7742 32.2769 35.3206C32.2769 33.6211 31.8048 32.3232 30.8627 31.4291C29.925 30.5308 27.9043 30.0807 24.8028 30.0807C21.7057 30.0807 19.741 30.7549 18.913 32.0992C18.4699 32.7996 18.2081 33.4374 18.1253 34.0126C18.0403 34.5839 18 35.4417 18 36.5882V62.9489C18 63.6278 18.013 64.2025 18.0398 64.6729C18.9461 64.1937 20.1638 63.7101 21.7826 63.3279C24.1066 62.7791 25.8369 64.7206 27.407 66.4823C28.3143 67.5003 29.168 68.4583 30.0519 68.841C30.8138 68.5293 31.3616 68.1127 31.6951 67.5913C32.1359 66.8445 32.3978 66.1824 32.4828 65.6052C32.5656 65.0299 32.6081 64.168 32.6081 63.0216V49.7726C32.6081 45.4289 34.2685 43.2571 37.5938 43.2571C41.0243 43.2571 42.7407 45.4289 42.7407 49.7726V62.8762C42.7407 63.0239 42.7413 63.1668 42.7426 63.305C44.9485 63.3084 46.9318 63.9822 48.121 65.4674C49.2702 66.9023 50.5674 68.3668 51.9634 69.4521C54.3283 69.2326 55.8187 68.5885 56.4358 67.5186C56.8766 66.7658 57.1385 66.1138 57.2235 65.5648C57.3063 65.0158 57.3488 64.1438 57.3488 62.9489V49.8452C57.3488 47.7461 57.6934 46.1232 58.3871 44.9768C59.0786 43.8303 60.3922 43.2571 62.3256 43.2571C65.7561 43.2571 67.4724 45.4289 67.4724 49.7726V55.4287C69.2255 56.4754 70.7306 58.2764 71.1387 60.1165C72.0875 64.3976 76.9524 64.1837 76.9524 60.3305C76.9524 57.0001 78.9924 52.9481 82 53.1585V49.8452C82 42.7565 80.5052 37.6781 77.5155 34.6101C74.5303 31.538 70.8246 30 66.3983 30C64.4045 30 62.4643 30.4885 60.5801 31.4613C58.7004 32.4362 57.3309 33.3345 56.4716 34.158C55.6168 34.9815 54.8873 35.7687 54.2786 36.5155C51.5082 32.1718 47.3013 30 41.6576 30Z" fill="white"/>
</g>
<defs>
<filter id="filter0_i_14_50" x="18" y="30" width="65" height="42.4521" filterUnits="userSpaceOnUse" color-interpolation-filters="sRGB">
<feFlood flood-opacity="0" result="BackgroundImageFix"/>
<feBlend mode="normal" in="SourceGraphic" in2="BackgroundImageFix" result="shape"/>
<feColorMatrix in="SourceAlpha" type="matrix" values="0 0 0 0 0 0 0 0 0 0 0 0 0 0 0 0 0 0 127 0" result="hardAlpha"/>
<feOffset dx="1" dy="3"/>
<feGaussianBlur stdDeviation="2"/>
<feComposite in2="hardAlpha" operator="arithmetic" k2="-1" k3="1"/>
<feColorMatrix type="matrix" values="0 0 0 0 0.0117647 0 0 0 0 0.235294 0 0 0 0 0.678431 0 0 0 0.2 0"/>
<feBlend mode="normal" in2="shape" result="effect1_innerShadow_14_50"/>
</filter>
</defs>
</svg>
